<?xml version="1.0" standalone="no"?>
<!DOCTYPE svg PUBLIC "-//W3C//DTD SVG 20010904//EN"
 "http://www.w3.org/TR/2001/REC-SVG-20010904/DTD/svg10.dtd">
<svg version="1.0" xmlns="http://www.w3.org/2000/svg"
 width="370.000000pt" height="300.000000pt" viewBox="0 0 370.000000 300.000000"
 preserveAspectRatio="xMidYMid meet">

<g transform="translate(0.000000,300.000000) scale(0.100000,-0.100000)"
fill="#000000" stroke="none">
<path d="M0 1500 l0 -1500 1850 0 1850 0 0 1500 0 1500 -1850 0 -1850 0 0
-1500z m1641 468 c-7 -57 -16 -120 -20 -140 -14 -61 5 -44 22 20 l16 57 -1
-65 -2 -65 45 -7 c24 -3 65 -7 90 -7 l47 -1 20 53 c12 28 28 75 36 102 15 48
15 49 11 10 -19 -151 -19 -152 4 -158 15 -3 26 2 37 16 15 22 15 22 12 -8 l-3
-30 73 -5 c44 -3 77 -1 81 5 17 21 32 83 38 152 3 40 9 73 12 73 4 0 6 -55 4
-122 l-2 -123 -46 -11 c-52 -14 -77 -31 -30 -20 17 3 55 12 86 18 l57 12 6 77
c4 42 4 100 1 130 -4 35 -3 49 3 39 5 -8 13 -53 17 -100 12 -147 17 -173 40
-200 10 -12 9 -42 -5 -155 -34 -275 -91 -363 -275 -418 -27 -8 -74 -24 -103
-36 -73 -29 -111 -27 -208 15 -47 20 -87 34 -90 32 -7 -8 184 -88 210 -88 13
0 40 7 59 15 20 8 38 15 41 15 2 0 -4 -23 -15 -50 -10 -28 -19 -65 -18 -83 0
-24 6 -12 23 46 23 79 46 115 64 103 5 -3 24 -42 42 -86 43 -106 38 -122 -44
-161 -55 -26 -124 -79 -102 -79 4 0 15 9 24 19 10 10 43 30 75 45 l58 25 -7
-22 c-13 -44 -68 -123 -129 -187 -39 -41 -67 -80 -74 -105 -7 -22 -15 -46 -17
-54 -4 -11 -9 -9 -21 8 -8 13 -35 41 -60 64 -52 48 -82 97 -117 191 -14 37
-26 70 -26 72 0 2 12 -3 28 -11 68 -35 112 -52 112 -44 0 5 -17 16 -37 25
-116 49 -130 69 -139 199 -5 61 -2 75 17 105 l23 35 12 -60 c10 -50 12 -54 13
-24 2 78 -7 94 -63 118 -29 12 -66 35 -82 52 -27 28 -29 38 -41 162 -6 73 -12
162 -12 200 -1 64 0 68 25 77 47 18 54 14 54 -35 0 -47 23 -105 40 -105 6 0 3
11 -5 24 -18 27 -11 35 36 43 18 2 29 0 29 -7 0 -7 -7 -10 -15 -6 -8 3 -15 1
-15 -3 0 -17 34 -22 46 -7 15 21 21 20 34 -4 9 -16 6 -22 -17 -34 -18 -10 -22
-15 -11 -16 9 0 28 14 43 32 23 27 26 39 22 76 -4 34 -2 42 9 38 17 -6 19 10
2 20 -8 5 -6 11 6 19 15 11 13 13 -11 18 -16 3 -71 5 -123 4 -74 -2 -102 -6
-124 -20 l-28 -19 5 74 c2 40 7 87 9 103 3 17 9 58 13 93 4 34 11 65 16 67 4
3 6 -9 4 -27 -27 -211 -27 -211 47 -194 47 10 55 16 76 53 21 38 37 104 57
227 13 77 17 24 6 -76z m17 -346 c3 -10 -4 -13 -24 -10 -15 2 -29 9 -32 16 -3
10 4 13 24 10 15 -2 29 -9 32 -16z m-3 -32 c3 -5 -1 -10 -9 -10 -9 0 -16 5
-16 10 0 6 4 10 9 10 6 0 13 -4 16 -10z m-320 -500 c8 -7 12 -16 10 -21 -3 -4
8 -15 24 -23 16 -9 32 -24 35 -33 13 -42 3 -126 -27 -250 -21 -82 -116 -165
-142 -123 -9 14 41 97 92 152 24 26 43 50 43 53 0 11 -53 85 -61 85 -5 0 -9 8
-9 18 0 13 6 10 25 -13 51 -62 22 -10 -40 73 -36 48 -65 90 -65 94 0 12 99 1
115 -12z m-186 -3 c-23 -17 -178 -107 -183 -107 -10 0 15 43 33 58 22 18 79
43 116 52 27 6 45 5 34 -3z m-31 -79 c-2 -14 -24 -37 -58 -61 -59 -41 -83 -75
-78 -110 1 -12 -1 -28 -6 -35 -4 -7 -5 -16 -2 -19 3 -3 12 10 21 28 10 21 47
57 93 91 80 59 129 75 119 39 -3 -15 1 -21 16 -23 36 -5 31 -32 -20 -108 -88
-133 -87 -130 -74 -143 9 -9 23 1 60 41 44 48 81 67 81 41 0 -12 -76 -125 -90
-134 -5 -3 -10 -27 -10 -53 -1 -91 -76 -131 -157 -81 -40 25 -57 55 -72 129
-6 30 -19 77 -27 103 -15 45 -15 55 2 134 10 47 25 93 33 103 20 23 130 80
154 80 13 0 17 -6 15 -22z m226 -144 c9 -24 7 -27 -9 -10 -17 17 -19 26 -6 26
5 0 12 -7 15 -16z m-9 -53 c-3 -6 -11 -11 -17 -11 -6 0 -6 6 2 15 14 17 26 13
15 -4z"/>
<path d="M1511 1756 c2 -2 15 -9 29 -15 24 -11 24 -11 6 3 -16 13 -49 24 -35
12z"/>
<path d="M1575 1720 c3 -5 14 -10 23 -10 15 0 15 2 2 10 -20 13 -33 13 -25 0z"/>
<path d="M1730 1675 c-7 -9 -8 -15 -2 -15 5 0 12 7 16 15 3 8 4 15 2 15 -2 0
-9 -7 -16 -15z"/>
<path d="M1761 1664 c0 -11 3 -14 6 -6 3 7 2 16 -1 19 -3 4 -6 -2 -5 -13z"/>
<path d="M1980 1670 c0 -5 5 -10 11 -10 5 0 7 5 4 10 -3 6 -8 10 -11 10 -2 0
-4 -4 -4 -10z"/>
<path d="M2050 1673 c-8 -3 -23 -14 -32 -24 -19 -19 -24 -34 -10 -25 5 3 7
-19 4 -49 -3 -41 0 -62 13 -81 19 -30 33 -26 14 4 -10 17 -10 23 1 37 12 14
15 14 34 -5 20 -18 24 -18 37 -4 14 13 17 13 28 0 11 -13 7 -18 -21 -36 -18
-11 -26 -20 -18 -20 42 0 90 67 90 125 0 25 1 25 29 11 32 -17 43 -37 35 -63
-5 -15 -3 -15 11 2 16 19 14 80 -3 97 -10 10 -139 38 -170 37 -15 0 -34 -3
-42 -6z m115 -53 c8 -13 -20 -24 -41 -16 -8 3 -12 10 -9 16 8 13 42 13 50 0z
m-5 -40 c0 -5 -4 -10 -10 -10 -5 0 -10 5 -10 10 0 6 5 10 10 10 6 0 10 -4 10
-10z m-63 -46 c-9 -9 -28 6 -21 18 4 6 10 6 17 -1 6 -6 8 -13 4 -17z"/>
<path d="M1840 1470 c0 -5 5 -10 11 -10 5 0 7 5 4 10 -3 6 -8 10 -11 10 -2 0
-4 -4 -4 -10z"/>
<path d="M1535 1450 c3 -5 13 -10 21 -10 8 0 14 -4 14 -9 0 -13 53 3 58 17 2
8 -12 12 -48 12 -31 0 -49 -4 -45 -10z"/>
<path d="M1830 1440 c-21 -6 -17 -8 20 -12 25 -3 49 -2 53 2 12 10 -43 17 -73
10z"/>
<path d="M2020 1440 c0 -11 1 -12 58 -15 45 -3 57 9 20 19 -36 9 -78 7 -78 -4z"/>
<path d="M1865 1400 c3 -5 8 -10 11 -10 2 0 4 5 4 10 0 6 -5 10 -11 10 -5 0
-7 -4 -4 -10z"/>
<path d="M1772 1250 c0 -14 2 -19 5 -12 2 6 2 18 0 25 -3 6 -5 1 -5 -13z"/>
<path d="M1714 1248 c-4 -7 -3 -8 4 -4 7 4 12 3 12 -3 0 -5 -5 -12 -10 -14 -6
-3 -5 -4 2 -3 16 3 24 36 9 36 -5 0 -13 -5 -17 -12z"/>
<path d="M1756 1205 c-5 -15 -4 -16 9 -5 20 17 73 6 102 -22 13 -12 23 -17 23
-11 0 21 -41 46 -83 50 -36 4 -45 2 -51 -12z"/>
<path d="M1768 723 c7 -3 16 -2 19 1 4 3 -2 6 -13 5 -11 0 -14 -3 -6 -6z"/>
<path d="M1124 842 c-41 -37 -79 -90 -71 -98 4 -4 96 98 111 124 11 19 5 14
-40 -26z"/>
</g>
</svg>
